Coordinates
version=1
nRows=6
nColumns=63
inDegrees=yes

Units are S.I. units (second, meters, Newtons, ...)
If the header above contains a line with 'inDegrees', this indicates whether rotational values are in degrees (yes) or radians (no).

endheader
time	pelvis_tilt	pelvis_list	pelvis_rotation	pelvis_tx	pelvis_ty	pelvis_tz	hip_flexion_r	hip_adduction_r	hip_rotation_r	knee_angle_r	knee_angle_r_beta	ankle_angle_r	subtalar_angle_r	mtp_angle_r	hip_flexion_l	hip_adduction_l	hip_rotation_l	knee_angle_l	knee_angle_l_beta	ankle_angle_l	subtalar_angle_l	mtp_angle_l	L5_S1_Flex_Ext	L5_S1_Lat_Bending	L5_S1_axial_rotation	L4_L5_Flex_Ext	L4_L5_Lat_Bending	L4_L5_axial_rotation	L3_L4_Flex_Ext	L3_L4_Lat_Bending	L3_L4_axial_rotation	L2_L3_Flex_Ext	L2_L3_Lat_Bending	L2_L3_axial_rotation	L1_L2_Flex_Ext	L1_L2_Lat_Bending	L1_L2_axial_rotation	L1_T12_Flex_Ext	L1_T12_Lat_Bending	L1_T12_axial_rotation	Abs_r3	Abs_r2	Abs_r1	Abs_t1	Abs_t2	neck_flexion	neck_bending	neck_rotation	arm_flex_r	arm_add_r	arm_rot_r	elbow_flex_r	pro_sup_r	wrist_flex_r	wrist_dev_r	arm_flex_l	arm_add_l	arm_rot_l	elbow_flex_l	pro_sup_l	wrist_flex_l	wrist_dev_l
1.333333	-4.398450	-13.703974	76.393974	0.336800	0.825244	0.557017	17.112754	-0.985929	20.644967	13.453866	0.234814	26.833787	-8.939132	0.000000	11.922785	1.573526	-7.895711	6.782665	0.118380	28.500937	-7.892551	0.000000	-0.113321	-0.782451	0.333367	-0.210449	-1.040660	0.354202	-0.186175	-1.902451	0.354202	-0.129515	-1.902451	0.291696	-0.105230	-1.595574	0.270861	-0.064752	-1.212016	0.250025	-0.809441	-8.851241	1.854086	0.000000	0.000000	14.430565	11.625883	-7.040279	48.759614	-11.076813	5.424045	127.554307	82.938349	2.215524	8.559175	6.953342	-17.698370	36.838214	37.300148	86.715556	-15.151838	-0.866401
1.357143	-4.558268	-14.058184	75.743747	0.338244	0.823866	0.557791	18.012162	-0.716115	21.227339	14.229464	0.248351	27.163932	-9.132674	0.000000	12.907375	1.263682	-9.860247	8.047717	0.140459	29.476619	-6.373963	0.000000	-0.153639	-0.797203	0.226507	-0.285323	-1.060280	0.240664	-0.252413	-1.938319	0.240664	-0.175594	-1.938319	0.198194	-0.142669	-1.625656	0.184037	-0.087789	-1.234867	0.169880	-1.097428	-9.018118	1.259765	0.000000	0.000000	14.080481	12.525313	-6.463991	51.410946	-10.787935	4.313132	128.957858	83.341583	3.786825	6.221107	6.841861	-18.035397	37.509800	36.347140	86.924759	-15.984877	-1.195368
1.380952	-4.713245	-14.439723	75.272378	0.339462	0.822283	0.558245	18.890425	-0.467452	21.537256	15.005826	0.261901	27.565071	-9.176273	0.000000	13.927809	0.939516	-11.686752	9.363437	0.163423	30.483226	-4.823568	0.000000	-0.190823	-0.812024	0.142003	-0.354378	-1.079992	0.150878	-0.313504	-1.974355	0.150878	-0.218092	-1.974355	0.124253	-0.177198	-1.655879	0.115377	-0.109036	-1.257825	0.106502	-1.363032	-9.185776	0.789778	0.000000	0.000000	13.765896	13.448878	-6.090446	53.546982	-10.501995	3.101935	130.212795	83.809616	5.460428	4.185258	7.020072	-18.299122	39.088017	35.297683	87.205525	-16.815765	-1.519834
1.404762	-4.875602	-14.841702	74.907237	0.340569	0.820520	0.558410	19.752349	-0.240890	21.766833	15.795065	0.275676	27.996691	-9.231995	0.000000	14.961965	0.624461	-13.374933	10.698043	0.186716	31.472837	-3.373101	0.000000	-0.224261	-0.829965	0.095096	-0.416475	-1.103853	0.101040	-0.368438	-2.017977	0.101040	-0.256308	-2.017977	0.083209	-0.208249	-1.692464	0.077266	-0.128143	-1.285616	0.071322	-1.601874	-9.388729	0.528897	0.000000	0.000000	13.459382	14.340665	-6.028523	55.258429	-10.274145	1.986205	131.323059	83.849561	6.712721	2.398564	7.532233	-18.457180	41.885488	34.060799	87.517391	-17.670356	-1.723355
1.428571	-5.113073	-15.239626	74.601537	0.341742	0.818573	0.558446	20.625504	-0.080280	21.919161	16.653586	0.290660	28.483462	-9.225665	0.000000	15.988300	0.373473	-14.929856	12.017720	0.209749	32.412089	-2.065276	0.000000	-0.253646	-0.860938	0.083800	-0.471047	-1.145047	0.089038	-0.416716	-2.093284	0.089038	-0.289892	-2.093284	0.073325	-0.235536	-1.755625	0.068088	-0.144934	-1.333593	0.062850	-1.811771	-9.739102	0.466072	0.000000	0.000000	13.195220	15.219508	-6.238970	56.683040	-10.032684	0.927859	132.279656	83.521038	7.785809	1.327940	8.362738	-18.944257	40.805624	33.743507	91.889492	-18.732919	-1.459030
1.452381	-5.335314	-15.637843	74.419472	0.342773	0.816498	0.558270	21.460246	0.063952	22.028576	17.525996	0.305886	28.961008	-9.284615	0.000000	16.985424	0.141090	-16.203163	13.297651	0.232088	33.291780	-1.003475	0.000000	-0.276711	-0.890667	0.087449	-0.513880	-1.184587	0.092915	-0.454608	-2.165567	0.092915	-0.316253	-2.165567	0.076518	-0.256954	-1.816247	0.071052	-0.158113	-1.379643	0.065587	-1.976518	-10.075399	0.486366	0.000000	0.000000	12.924367	15.991987	-6.599855	57.919883	-9.795487	0.199052	132.958063	82.674645	8.272808	0.652783	9.359303	-19.098132	43.228482	32.682661	93.876144	-19.542602	-1.331775
